# xmcd
#
# Track frame offsets: 
#        150
#        18250
#        40450
#        58680
#        80780
#        101387
#        124202
#        139705
#        161622
#        183882
#        205182
#        225705
#        243760
#        264317
#        284685
#
# Disc length: 4059 seconds
#
# Revision: 1
# Processed by: cddbd v1.5.2PL0 Copyright (c) Steve Scherf et al.
# Submitted via: ExactAudioCopy v1.0b3
#
DISCID=ce0fd90f
DTITLE=橄榄树乐队 - 新国风音乐专辑I《在那遥远的地方》 
DYEAR=2006
DGENRE=Acid
TTITLE0=掀起你的盖头来
TTITLE1=牧歌
TTITLE2=延边人民热爱毛主席
TTITLE3=小河淌水
TTITLE4=半个月亮爬上来
TTITLE5=在银色的月亮下
TTITLE6=赶牲灵
TTITLE7=美丽的草原我的家
TTITLE8=渔舟唱晚
TTITLE9=人说山西好风光
TTITLE10=三十里铺
TTITLE11=乌苏里船歌
TTITLE12=浏阳河
TTITLE13=森吉德玛
TTITLE14=在那遥远的地方
EXTD=
EXTT0=
EXTT1=
EXTT2=
EXTT3=
EXTT4=
EXTT5=
EXTT6=
EXTT7=
EXTT8=
EXTT9=
EXTT10=
EXTT11=
EXTT12=
EXTT13=
EXTT14=
PLAYORDER=
